G04 ================== begin FILE IDENTIFICATION RECORD ==================*
G04 Layout Name:  D:/BZZ/Work/CAD/Voltmeter.brd*
G04 Film Name:    BOTTOM*
G04 File Format:  Gerber RS274X*
G04 File Origin:  Cadence Allegro 17.2-S049*
G04 Origin Date:  Mon Jun 27 15:57:44 2022*
G04 *
G04 Layer:  ETCH/BOTTOM*
G04 Layer:  PIN/BOTTOM*
G04 Layer:  VIA CLASS/BOTTOM*
G04 *
G04 Offset:    (0.0 0.0)*
G04 Mirror:    No*
G04 Mode:      Positive*
G04 Rotation:  0*
G04 FullContactRelief:  No*
G04 UndefLineWidth:     0.0*
G04 ================== end FILE IDENTIFICATION RECORD ====================*
%FSLAX25Y25*MOIN*%
%IR0*IPPOS*OFA0.00000B0.00000*MIA0B0*SFA1.00000B1.00000*%
%ADD12C,.06*%
%ADD11C,.024*%
%ADD13C,.055*%
%ADD10R,.06X.06*%
%ADD14C,.005*%
G75*
%LPD*%
G75*
G54D10*
X1240000Y1040000D03*
X1260000D03*
X1300000D03*
X1280000D03*
G54D11*
X1239380Y1055620D03*
Y1048120D03*
X1245620Y1055620D03*
Y1048120D03*
X1239380Y1220620D03*
Y1216880D03*
X1227500Y1247500D03*
X1235000D03*
X1239380Y1225620D03*
X1242500Y1317500D03*
X1256880Y1055620D03*
X1271880D03*
X1251880Y1220620D03*
X1271880D03*
X1262500Y1247500D03*
X1255000D03*
Y1240000D03*
X1265000Y1242500D03*
X1255000Y1280000D03*
X1265000D03*
X1252500Y1290000D03*
X1270000D03*
X1250000Y1297500D03*
X1262500Y1300000D03*
X1252500Y1295000D03*
X1270000Y1277500D03*
Y1285000D03*
X1262760Y1307500D03*
X1265000Y1320000D03*
X1257500Y1312500D03*
X1262500D03*
X1257500Y1317500D03*
X1262500Y1330000D03*
X1282500Y1217500D03*
Y1225000D03*
X1320000Y1230000D03*
X1307500Y1300000D03*
X1317500Y1285000D03*
X1325000D03*
X1317500Y1305000D03*
Y1337500D03*
X1310000Y1332500D03*
X1325000Y1342500D03*
X1340000Y1212500D03*
X1347500Y1205000D03*
X1330000Y1230000D03*
X1340000Y1262500D03*
X1330000Y1282500D03*
X1347500D03*
X1350000Y1302500D03*
X1347500Y1322500D03*
X1332500Y1342500D03*
X1372500Y1242810D03*
X1355000Y1295000D03*
X1360000D03*
X1362500Y1322500D03*
X1355000Y1302500D03*
X1360000D03*
X1355000Y1350000D03*
X1360000Y1335000D03*
X1402500Y1220000D03*
X1389720Y1247780D03*
X1385000Y1230000D03*
X1445000Y1187500D03*
X1450000Y1215000D03*
Y1207500D03*
X1432500Y1232500D03*
X1445000Y1300000D03*
Y1320000D03*
X1435000Y1332500D03*
X1455000Y1337500D03*
X1447500Y1357500D03*
X1437500D03*
X1480000Y1062500D03*
X1460000D03*
Y1052500D03*
Y1105000D03*
Y1170000D03*
X1473000Y1197500D03*
X1475000Y1217500D03*
X1470000Y1210000D03*
X1467500Y1220000D03*
X1460000D03*
X1475000Y1225000D03*
X1470000D03*
X1475000Y1297500D03*
X1467500D03*
Y1317500D03*
X1460000D03*
X1470000Y1322500D03*
X1475000Y1340000D03*
X1467500Y1327500D03*
X1482500Y1332500D03*
X1467500Y1345000D03*
X1472500D03*
X1475000Y1350000D03*
X1462500Y1347500D03*
X1470000Y1372500D03*
Y1365000D03*
X1477500Y1360000D03*
X1495000Y1047500D03*
X1505000Y1055000D03*
X1507500Y1067500D03*
X1490000Y1087500D03*
X1507500Y1075000D03*
X1487500Y1105000D03*
Y1222500D03*
Y1215000D03*
X1500000Y1302500D03*
X1487500D03*
X1485000Y1367500D03*
Y1372500D03*
X1515000Y1047500D03*
Y1055000D03*
Y1060000D03*
X1510000Y1215000D03*
Y1232500D03*
X1515000Y1230000D03*
X1520000D03*
X1515000Y1225000D03*
X1525000D03*
X1527500Y1250000D03*
X1522500Y1295000D03*
X1527500Y1297500D03*
X1515000Y1302500D03*
X1510000Y1317500D03*
X1512500Y1315000D03*
X1515000Y1310000D03*
X1522500Y1302500D03*
X1515000Y1320000D03*
X1520000D03*
X1515000Y1327500D03*
X1520000D03*
X1512500Y1330000D03*
Y1337500D03*
X1547500Y1067500D03*
X1545000Y1087500D03*
X1557500Y1192500D03*
Y1182500D03*
X1552500D03*
Y1227500D03*
X1577500Y1082500D03*
X1570000Y1242500D03*
G54D12*
X1272500Y1200000D03*
X1282500Y1210000D03*
X1292500Y1200000D03*
X1340000Y1250000D03*
X1350000Y1260000D03*
X1360000Y1250000D03*
G54D13*
X1272000Y1256000D03*
X1281000Y1251000D03*
Y1261000D03*
X1479000Y1041000D03*
X1473000Y1047000D03*
Y1054000D03*
Y1061000D03*
Y1068000D03*
X1479000Y1074000D03*
X1500000Y1041000D03*
X1493000D03*
X1486000D03*
X1500000Y1074000D03*
X1493000D03*
X1486000D03*
G54D14*
G01X1239380Y1055620D02*
Y1048120D01*
G01X1245620Y1055620D02*
Y1048120D01*
G01X1239380Y1225620D02*
Y1220620D01*
G01Y1216880D02*
X1265000Y1242500D01*
G01X1227500Y1247500D02*
X1235000D01*
G01X1242500Y1317500D02*
Y1275000D01*
X1255000Y1262500D01*
Y1255000D01*
X1252500Y1252500D01*
Y1242500D01*
X1255000Y1240000D01*
G01X1256880Y1055620D02*
X1271880D01*
G01X1251880Y1220620D02*
X1271880D01*
G01X1272000Y1256000D02*
Y1233000D01*
X1275000Y1230000D01*
X1320000D01*
G01X1262500Y1247500D02*
X1255000D01*
G01X1272000Y1256000D02*
X1275000Y1259000D01*
Y1287500D01*
X1272500Y1290000D01*
X1270000D01*
G01X1255000Y1280000D02*
X1265000D01*
G01X1250000Y1297500D02*
X1260000D01*
X1262500Y1300000D01*
G01X1257500Y1290000D02*
X1252500D01*
G01X1257500D02*
X1252500Y1295000D01*
G01X1270000Y1290000D02*
X1257500D01*
G01X1270000Y1277500D02*
Y1285000D01*
G01X1262760Y1310000D02*
X1265000Y1312240D01*
Y1320000D01*
G01X1257500Y1312500D02*
X1262500D01*
G01Y1330000D02*
X1258000D01*
X1257500Y1329500D01*
Y1317500D01*
G01X1282500Y1217500D02*
Y1225000D01*
G01X1350000Y1260000D02*
X1285500D01*
X1284500Y1261000D01*
X1281000D01*
G01D02*
Y1251000D01*
G01X1402500Y1220000D02*
X1403400Y1219100D01*
X1404100D01*
X1404650Y1219650D01*
Y1220350D01*
X1400000Y1225000D01*
Y1227000D01*
X1399500Y1227500D01*
X1327500D01*
X1325000Y1230000D01*
Y1240000D01*
X1314000Y1251000D01*
X1281000D01*
G01X1317500Y1285000D02*
X1325000D01*
G01X1470000Y1322500D02*
X1457500D01*
X1455000Y1320000D01*
Y1307500D01*
X1452500Y1305000D01*
X1317500D01*
G01X1307500Y1300000D02*
X1315000Y1307500D01*
Y1317000D01*
X1315500Y1317500D01*
X1359500D01*
X1360000Y1317000D01*
Y1308000D01*
X1360500Y1307500D01*
X1440000D01*
X1457500Y1325000D01*
X1460000D01*
X1462500Y1327500D01*
X1467500D01*
G01X1362500Y1322500D02*
X1360000Y1320000D01*
X1317500D01*
X1310000Y1327500D01*
Y1332500D01*
G01X1325000Y1342500D02*
Y1323000D01*
X1325500Y1322500D01*
X1347500D01*
G01X1355000Y1350000D02*
Y1359500D01*
X1354500Y1360000D01*
X1318000D01*
X1317500Y1359500D01*
Y1337500D01*
G01X1340000Y1212500D02*
X1347500Y1205000D01*
G01X1385000Y1230000D02*
X1330000D01*
G01X1350000Y1302500D02*
X1352500Y1300000D01*
Y1270500D01*
X1352000Y1270000D01*
X1345000D01*
X1340000Y1265000D01*
Y1262500D01*
G01X1360000Y1250000D02*
X1350000Y1260000D01*
G01X1330000Y1282500D02*
X1347500D01*
G01X1360000Y1335000D02*
Y1342000D01*
X1359500Y1342500D01*
X1332500D01*
G01X1360000Y1250000D02*
X1362660Y1247340D01*
X1367340D01*
X1367780Y1247780D01*
X1389720D01*
G01X1432500Y1232500D02*
Y1237500D01*
X1427190Y1242810D01*
X1372500D01*
G01X1355000Y1302500D02*
Y1295000D01*
G01X1360000Y1302500D02*
Y1295000D01*
G01X1445000Y1187500D02*
Y1300000D01*
G01X1450000Y1215000D02*
Y1207500D01*
G01X1445000Y1320000D02*
Y1327500D01*
X1455000Y1337500D01*
G01X1475000Y1340000D02*
X1440000D01*
X1435000Y1335000D01*
Y1332500D01*
G01X1447500Y1357500D02*
X1437500D01*
G01X1515000Y1060000D02*
X1482500D01*
X1480000Y1062500D01*
G01X1460000D02*
Y1052500D01*
G01X1487500Y1105000D02*
X1460000D01*
G01Y1170000D02*
Y1220000D01*
G01X1570000Y1242500D02*
X1493000D01*
X1492500Y1242000D01*
Y1210000D01*
X1480000Y1197500D01*
X1473000D01*
G01X1475000Y1217500D02*
Y1225000D01*
G01X1470000D02*
Y1210000D01*
G01X1467500Y1220000D02*
X1460000D01*
G01X1475000Y1297500D02*
X1467500D01*
G01Y1317500D02*
X1460000D01*
G01X1467500Y1345000D02*
X1472500D01*
G01X1475000Y1350000D02*
X1465000D01*
X1462500Y1347500D01*
G01X1470000Y1372500D02*
Y1365000D01*
G01X1477500Y1360000D02*
X1480000D01*
X1482500Y1357500D01*
Y1332500D01*
G01X1495000Y1047500D02*
X1515000D01*
G01Y1055000D02*
X1505000D01*
G01X1490000Y1087500D02*
X1545000D01*
G01X1487500Y1222500D02*
Y1215000D01*
G01X1500000Y1302500D02*
X1487500D01*
G01X1485000Y1367500D02*
Y1372500D01*
G01X1507500Y1067500D02*
X1547500D01*
G01X1507500Y1075000D02*
X1570000D01*
X1577500Y1082500D01*
G01X1510000Y1232500D02*
Y1215000D01*
G01X1515000Y1230000D02*
X1520000D01*
G01X1515000Y1225000D02*
X1525000D01*
G01X1527500Y1250000D02*
X1525000Y1252500D01*
Y1295000D01*
X1524450Y1295550D01*
Y1295810D01*
X1523310Y1296950D01*
X1523050D01*
X1516950Y1303050D01*
Y1303310D01*
X1515810Y1304450D01*
X1515550D01*
X1510000Y1310000D01*
Y1317500D01*
G01X1515000Y1302500D02*
X1522500Y1295000D01*
G01X1527500Y1297500D02*
Y1312500D01*
X1525000Y1315000D01*
X1512500D01*
G01X1515000Y1310000D02*
X1522500Y1302500D01*
G01X1515000Y1320000D02*
X1520000D01*
G01X1515000Y1327500D02*
X1520000D01*
G01X1512500Y1330000D02*
Y1337500D01*
G01X1557500Y1192500D02*
Y1182500D01*
G01X1552500D02*
Y1227500D01*
M02*
